<?xml version="1.0" encoding="iso-8859-1"?>
<!-- Generator: Adobe Illustrator 17.1.0, SVG Export Plug-In . SVG Version: 6.00 Build 0)  -->
<!DOCTYPE svg PUBLIC "-//W3C//DTD SVG 1.1//EN" "http://www.w3.org/Graphics/SVG/1.1/DTD/svg11.dtd">
<svg xmlns="http://www.w3.org/2000/svg" xmlns:xlink="http://www.w3.org/1999/xlink" version="1.1" id="Capa_1" x="0px" y="0px" viewBox="0 0 388.289 388.289" style="enable-background:new 0 0 388.289 388.289;" xml:space="preserve" width="512px" height="512px">
<path d="M365.622,193.718c-3.623-4.866-7.636-9.224-12.007-13.064v-43.812c0-8.271-6.729-15-15-15h-9.218  c0.252-5.558-0.276-11.49-1.621-17.498c-3.077-13.743-9.993-26.229-19.474-35.159c-9.112-8.584-18.054-11.264-25.942-13.628  c-3.453-1.035-6.714-2.012-9.993-3.499c-12.871-5.836-22.111-14.021-31.896-22.687C227.978,18.306,215.058,6.863,195.65,2.391  c-1.246-0.287-2.528-0.433-3.81-0.433c-6.2,0-12.102,3.415-15.4,8.911c-3.158,5.262-3.384,11.519-0.604,16.735  c3.491,6.552,4.711,11.85,3.348,14.537c-4.35,8.572-31.788,12.491-44.973,14.375l-0.344,0.053  c-17.983,2.997-36.758,6.734-51.298,16.428c-16.472,10.981-24.426,27.395-23.705,48.845h-9.191c-8.271,0-15,6.729-15,15v43.812  c-4.371,3.84-8.384,8.198-12.007,13.064C7.838,213.635,0,241.112,0,273.179c0,32.067,7.838,59.544,22.667,79.461  c16.41,22.041,40.784,33.691,70.486,33.691h201.984c29.702,0,54.075-11.65,70.485-33.691c14.829-19.917,22.667-47.394,22.667-79.461  C388.289,241.112,380.451,213.635,365.622,193.718z M194.145,317.401c-57.511,0-104.132-27.072-104.132-60.467  s46.622-60.467,104.132-60.467s104.132,27.072,104.132,60.467S251.655,317.401,194.145,317.401z M299.418,121.842H89.559  c-0.234-0.129-0.474-0.256-0.707-0.385c-1.132-21.093,10.083-28.636,49.775-35.267c23.647-3.378,55.924-8.041,67.309-30.472  c2.111-4.16,3.347-8.578,3.709-13.238c3.522,2.784,7.087,5.941,10.936,9.35c10.504,9.303,22.408,19.847,39.396,27.55  c5.121,2.322,9.717,3.7,13.771,4.915c6.777,2.031,10.203,3.165,13.984,6.728C296.982,99.735,300.209,113.728,299.418,121.842z" fill="#e81e41"/>
<g>
</g>
<g>
</g>
<g>
</g>
<g>
</g>
<g>
</g>
<g>
</g>
<g>
</g>
<g>
</g>
<g>
</g>
<g>
</g>
<g>
</g>
<g>
</g>
<g>
</g>
<g>
</g>
<g>
</g>
</svg>
